<mxfile host="Electron" agent="Mozilla/5.0 (Windows NT 10.0; Win64; x64) AppleWebKit/537.36 (KHTML, like Gecko) draw.io/24.7.8 Chrome/128.0.6613.36 Electron/32.0.1 Safari/537.36" version="24.7.8">
  <diagram name="Page-1" id="0783ab3e-0a74-02c8-0abd-f7b4e66b4bec">
    <mxGraphModel dx="1244" dy="739" grid="1" gridSize="10" guides="1" tooltips="1" connect="1" arrows="1" fold="1" page="1" pageScale="1" pageWidth="850" pageHeight="1100" background="none" math="0" shadow="0">
      <root>
        <mxCell id="0" />
        <mxCell id="1" parent="0" />
        <mxCell id="QB25MnDb5i1oO8HmWv7v-1" value="" style="html=1;whiteSpace=wrap;" vertex="1" parent="1">
          <mxGeometry x="118" y="40" width="600" height="1000" as="geometry" />
        </mxCell>
        <mxCell id="QB25MnDb5i1oO8HmWv7v-21" style="edgeStyle=orthogonalEdgeStyle;rounded=0;orthogonalLoop=1;jettySize=auto;html=1;entryX=0;entryY=0.5;entryDx=0;entryDy=0;" edge="1" parent="1" source="QB25MnDb5i1oO8HmWv7v-2" target="QB25MnDb5i1oO8HmWv7v-4">
          <mxGeometry relative="1" as="geometry">
            <Array as="points">
              <mxPoint x="140" y="430" />
              <mxPoint x="140" y="185" />
            </Array>
          </mxGeometry>
        </mxCell>
        <mxCell id="QB25MnDb5i1oO8HmWv7v-24" style="edgeStyle=orthogonalEdgeStyle;rounded=0;orthogonalLoop=1;jettySize=auto;html=1;entryX=0;entryY=0.5;entryDx=0;entryDy=0;" edge="1" parent="1" source="QB25MnDb5i1oO8HmWv7v-2" target="QB25MnDb5i1oO8HmWv7v-7">
          <mxGeometry relative="1" as="geometry">
            <Array as="points">
              <mxPoint x="140" y="430" />
              <mxPoint x="140" y="510" />
            </Array>
          </mxGeometry>
        </mxCell>
        <mxCell id="QB25MnDb5i1oO8HmWv7v-25" style="edgeStyle=orthogonalEdgeStyle;rounded=0;orthogonalLoop=1;jettySize=auto;html=1;entryX=0;entryY=0.5;entryDx=0;entryDy=0;" edge="1" parent="1" source="QB25MnDb5i1oO8HmWv7v-2" target="QB25MnDb5i1oO8HmWv7v-16">
          <mxGeometry relative="1" as="geometry">
            <Array as="points">
              <mxPoint x="140" y="430" />
              <mxPoint x="140" y="355" />
            </Array>
          </mxGeometry>
        </mxCell>
        <mxCell id="QB25MnDb5i1oO8HmWv7v-26" style="edgeStyle=orthogonalEdgeStyle;rounded=0;orthogonalLoop=1;jettySize=auto;html=1;entryX=0;entryY=0.5;entryDx=0;entryDy=0;" edge="1" parent="1" source="QB25MnDb5i1oO8HmWv7v-2" target="QB25MnDb5i1oO8HmWv7v-8">
          <mxGeometry relative="1" as="geometry">
            <Array as="points">
              <mxPoint x="140" y="430" />
              <mxPoint x="140" y="615" />
            </Array>
          </mxGeometry>
        </mxCell>
        <mxCell id="QB25MnDb5i1oO8HmWv7v-2" value="Job Seeker" style="shape=umlActor;verticalLabelPosition=bottom;verticalAlign=top;html=1;" vertex="1" parent="1">
          <mxGeometry x="40" y="400" width="30" height="60" as="geometry" />
        </mxCell>
        <mxCell id="QB25MnDb5i1oO8HmWv7v-4" value="Registration/&lt;div&gt;LogIn&lt;/div&gt;" style="ellipse;whiteSpace=wrap;html=1;" vertex="1" parent="1">
          <mxGeometry x="190" y="150" width="140" height="70" as="geometry" />
        </mxCell>
        <mxCell id="QB25MnDb5i1oO8HmWv7v-5" value="Search Jobs" style="ellipse;whiteSpace=wrap;html=1;" vertex="1" parent="1">
          <mxGeometry x="190" y="260" width="140" height="70" as="geometry" />
        </mxCell>
        <mxCell id="QB25MnDb5i1oO8HmWv7v-6" value="Apply for Jobs" style="ellipse;whiteSpace=wrap;html=1;" vertex="1" parent="1">
          <mxGeometry x="190" y="370" width="140" height="70" as="geometry" />
        </mxCell>
        <mxCell id="QB25MnDb5i1oO8HmWv7v-7" value="Track Application&amp;nbsp;&lt;div&gt;Status&lt;/div&gt;" style="ellipse;whiteSpace=wrap;html=1;" vertex="1" parent="1">
          <mxGeometry x="190" y="475" width="140" height="70" as="geometry" />
        </mxCell>
        <mxCell id="QB25MnDb5i1oO8HmWv7v-8" value="Receive Job Alerts" style="ellipse;whiteSpace=wrap;html=1;" vertex="1" parent="1">
          <mxGeometry x="190" y="580" width="140" height="70" as="geometry" />
        </mxCell>
        <mxCell id="QB25MnDb5i1oO8HmWv7v-29" style="edgeStyle=orthogonalEdgeStyle;rounded=0;orthogonalLoop=1;jettySize=auto;html=1;exitX=0.5;exitY=0.5;exitDx=0;exitDy=0;exitPerimeter=0;entryX=1;entryY=0.5;entryDx=0;entryDy=0;" edge="1" parent="1" source="QB25MnDb5i1oO8HmWv7v-9" target="QB25MnDb5i1oO8HmWv7v-13">
          <mxGeometry relative="1" as="geometry">
            <Array as="points">
              <mxPoint x="710" y="340" />
              <mxPoint x="710" y="440" />
            </Array>
          </mxGeometry>
        </mxCell>
        <mxCell id="QB25MnDb5i1oO8HmWv7v-30" style="edgeStyle=orthogonalEdgeStyle;rounded=0;orthogonalLoop=1;jettySize=auto;html=1;exitX=0.5;exitY=0.5;exitDx=0;exitDy=0;exitPerimeter=0;entryX=1;entryY=0.5;entryDx=0;entryDy=0;" edge="1" parent="1" source="QB25MnDb5i1oO8HmWv7v-9" target="QB25MnDb5i1oO8HmWv7v-4">
          <mxGeometry relative="1" as="geometry">
            <Array as="points">
              <mxPoint x="710" y="340" />
              <mxPoint x="710" y="185" />
            </Array>
          </mxGeometry>
        </mxCell>
        <mxCell id="QB25MnDb5i1oO8HmWv7v-31" style="edgeStyle=orthogonalEdgeStyle;rounded=0;orthogonalLoop=1;jettySize=auto;html=1;exitX=0.5;exitY=0.5;exitDx=0;exitDy=0;exitPerimeter=0;entryX=1;entryY=0.5;entryDx=0;entryDy=0;" edge="1" parent="1" source="QB25MnDb5i1oO8HmWv7v-9" target="QB25MnDb5i1oO8HmWv7v-14">
          <mxGeometry relative="1" as="geometry">
            <Array as="points">
              <mxPoint x="710" y="340" />
              <mxPoint x="710" y="525" />
            </Array>
          </mxGeometry>
        </mxCell>
        <mxCell id="QB25MnDb5i1oO8HmWv7v-9" value="Employer" style="shape=umlActor;verticalLabelPosition=bottom;verticalAlign=top;html=1;" vertex="1" parent="1">
          <mxGeometry x="780" y="310" width="30" height="60" as="geometry" />
        </mxCell>
        <mxCell id="QB25MnDb5i1oO8HmWv7v-39" style="edgeStyle=orthogonalEdgeStyle;rounded=0;orthogonalLoop=1;jettySize=auto;html=1;exitX=0.5;exitY=0.5;exitDx=0;exitDy=0;exitPerimeter=0;entryX=1;entryY=0.5;entryDx=0;entryDy=0;" edge="1" parent="1" source="QB25MnDb5i1oO8HmWv7v-10" target="QB25MnDb5i1oO8HmWv7v-33">
          <mxGeometry relative="1" as="geometry" />
        </mxCell>
        <mxCell id="QB25MnDb5i1oO8HmWv7v-40" style="edgeStyle=orthogonalEdgeStyle;rounded=0;orthogonalLoop=1;jettySize=auto;html=1;exitX=0.5;exitY=0.5;exitDx=0;exitDy=0;exitPerimeter=0;" edge="1" parent="1" source="QB25MnDb5i1oO8HmWv7v-10" target="QB25MnDb5i1oO8HmWv7v-36">
          <mxGeometry relative="1" as="geometry" />
        </mxCell>
        <mxCell id="QB25MnDb5i1oO8HmWv7v-41" style="edgeStyle=orthogonalEdgeStyle;rounded=0;orthogonalLoop=1;jettySize=auto;html=1;exitX=0.5;exitY=0.5;exitDx=0;exitDy=0;exitPerimeter=0;entryX=1;entryY=0.5;entryDx=0;entryDy=0;" edge="1" parent="1" source="QB25MnDb5i1oO8HmWv7v-10" target="QB25MnDb5i1oO8HmWv7v-35">
          <mxGeometry relative="1" as="geometry" />
        </mxCell>
        <mxCell id="QB25MnDb5i1oO8HmWv7v-10" value="Platform Administrator" style="shape=umlActor;verticalLabelPosition=bottom;verticalAlign=top;html=1;" vertex="1" parent="1">
          <mxGeometry x="770" y="690" width="30" height="60" as="geometry" />
        </mxCell>
        <mxCell id="QB25MnDb5i1oO8HmWv7v-12" value="View Applications" style="ellipse;whiteSpace=wrap;html=1;" vertex="1" parent="1">
          <mxGeometry x="500" y="310" width="140" height="70" as="geometry" />
        </mxCell>
        <mxCell id="QB25MnDb5i1oO8HmWv7v-13" value="Shortlist/Select Candidates" style="ellipse;whiteSpace=wrap;html=1;" vertex="1" parent="1">
          <mxGeometry x="420" y="405" width="140" height="70" as="geometry" />
        </mxCell>
        <mxCell id="QB25MnDb5i1oO8HmWv7v-14" value="Promote Job Listings" style="ellipse;whiteSpace=wrap;html=1;" vertex="1" parent="1">
          <mxGeometry x="400" y="490" width="140" height="70" as="geometry" />
        </mxCell>
        <mxCell id="QB25MnDb5i1oO8HmWv7v-15" value="Post Job Listings" style="ellipse;whiteSpace=wrap;html=1;" vertex="1" parent="1">
          <mxGeometry x="500" y="200" width="140" height="70" as="geometry" />
        </mxCell>
        <mxCell id="QB25MnDb5i1oO8HmWv7v-16" value="Access Training Resources" style="ellipse;whiteSpace=wrap;html=1;" vertex="1" parent="1">
          <mxGeometry x="320" y="320" width="140" height="70" as="geometry" />
        </mxCell>
        <mxCell id="QB25MnDb5i1oO8HmWv7v-17" value="Online Job Platform Tailored to Local Needs" style="text;html=1;align=center;verticalAlign=middle;whiteSpace=wrap;rounded=0;" vertex="1" parent="1">
          <mxGeometry x="270" y="60" width="280" height="30" as="geometry" />
        </mxCell>
        <mxCell id="QB25MnDb5i1oO8HmWv7v-22" style="edgeStyle=orthogonalEdgeStyle;rounded=0;orthogonalLoop=1;jettySize=auto;html=1;entryX=0.043;entryY=0.667;entryDx=0;entryDy=0;entryPerimeter=0;" edge="1" parent="1" source="QB25MnDb5i1oO8HmWv7v-2" target="QB25MnDb5i1oO8HmWv7v-5">
          <mxGeometry relative="1" as="geometry">
            <Array as="points">
              <mxPoint x="140" y="430" />
              <mxPoint x="140" y="307" />
            </Array>
          </mxGeometry>
        </mxCell>
        <mxCell id="QB25MnDb5i1oO8HmWv7v-23" style="edgeStyle=orthogonalEdgeStyle;rounded=0;orthogonalLoop=1;jettySize=auto;html=1;entryX=-0.004;entryY=0.636;entryDx=0;entryDy=0;entryPerimeter=0;exitX=0.5;exitY=0.5;exitDx=0;exitDy=0;exitPerimeter=0;" edge="1" parent="1" source="QB25MnDb5i1oO8HmWv7v-2" target="QB25MnDb5i1oO8HmWv7v-6">
          <mxGeometry relative="1" as="geometry">
            <Array as="points">
              <mxPoint x="140" y="430" />
              <mxPoint x="140" y="415" />
            </Array>
          </mxGeometry>
        </mxCell>
        <mxCell id="QB25MnDb5i1oO8HmWv7v-27" style="edgeStyle=orthogonalEdgeStyle;rounded=0;orthogonalLoop=1;jettySize=auto;html=1;exitX=0.5;exitY=0.5;exitDx=0;exitDy=0;exitPerimeter=0;entryX=0.999;entryY=0.606;entryDx=0;entryDy=0;entryPerimeter=0;" edge="1" parent="1" source="QB25MnDb5i1oO8HmWv7v-9" target="QB25MnDb5i1oO8HmWv7v-15">
          <mxGeometry relative="1" as="geometry" />
        </mxCell>
        <mxCell id="QB25MnDb5i1oO8HmWv7v-28" style="edgeStyle=orthogonalEdgeStyle;rounded=0;orthogonalLoop=1;jettySize=auto;html=1;exitX=0.5;exitY=0.5;exitDx=0;exitDy=0;exitPerimeter=0;entryX=1.004;entryY=0.66;entryDx=0;entryDy=0;entryPerimeter=0;" edge="1" parent="1" source="QB25MnDb5i1oO8HmWv7v-9" target="QB25MnDb5i1oO8HmWv7v-12">
          <mxGeometry relative="1" as="geometry" />
        </mxCell>
        <mxCell id="QB25MnDb5i1oO8HmWv7v-33" value="Manage Accounts" style="ellipse;whiteSpace=wrap;html=1;" vertex="1" parent="1">
          <mxGeometry x="540" y="570" width="140" height="70" as="geometry" />
        </mxCell>
        <mxCell id="QB25MnDb5i1oO8HmWv7v-34" value="Resolve Disputes" style="ellipse;whiteSpace=wrap;html=1;" vertex="1" parent="1">
          <mxGeometry x="565" y="820" width="140" height="70" as="geometry" />
        </mxCell>
        <mxCell id="QB25MnDb5i1oO8HmWv7v-35" value="Monitor Platform&amp;nbsp;&lt;div&gt;Activity&lt;/div&gt;" style="ellipse;whiteSpace=wrap;html=1;" vertex="1" parent="1">
          <mxGeometry x="425" y="740" width="140" height="70" as="geometry" />
        </mxCell>
        <mxCell id="QB25MnDb5i1oO8HmWv7v-36" value="Approve/Moderate Listings" style="ellipse;whiteSpace=wrap;html=1;" vertex="1" parent="1">
          <mxGeometry x="440" y="650" width="140" height="70" as="geometry" />
        </mxCell>
        <mxCell id="QB25MnDb5i1oO8HmWv7v-37" value="Offer Training&amp;nbsp;&lt;div&gt;Programs&lt;/div&gt;" style="ellipse;whiteSpace=wrap;html=1;" vertex="1" parent="1">
          <mxGeometry x="340" y="860" width="140" height="70" as="geometry" />
        </mxCell>
        <mxCell id="QB25MnDb5i1oO8HmWv7v-38" value="Process Payments" style="ellipse;whiteSpace=wrap;html=1;" vertex="1" parent="1">
          <mxGeometry x="180" y="730" width="140" height="70" as="geometry" />
        </mxCell>
        <mxCell id="QB25MnDb5i1oO8HmWv7v-42" style="edgeStyle=orthogonalEdgeStyle;rounded=0;orthogonalLoop=1;jettySize=auto;html=1;exitX=0.5;exitY=0.5;exitDx=0;exitDy=0;exitPerimeter=0;entryX=0.798;entryY=0.115;entryDx=0;entryDy=0;entryPerimeter=0;" edge="1" parent="1" source="QB25MnDb5i1oO8HmWv7v-10" target="QB25MnDb5i1oO8HmWv7v-34">
          <mxGeometry relative="1" as="geometry" />
        </mxCell>
        <mxCell id="QB25MnDb5i1oO8HmWv7v-45" style="edgeStyle=orthogonalEdgeStyle;rounded=0;orthogonalLoop=1;jettySize=auto;html=1;exitX=0.5;exitY=0.5;exitDx=0;exitDy=0;exitPerimeter=0;entryX=0;entryY=0.5;entryDx=0;entryDy=0;" edge="1" parent="1" source="QB25MnDb5i1oO8HmWv7v-44" target="QB25MnDb5i1oO8HmWv7v-37">
          <mxGeometry relative="1" as="geometry" />
        </mxCell>
        <mxCell id="QB25MnDb5i1oO8HmWv7v-46" style="edgeStyle=orthogonalEdgeStyle;rounded=0;orthogonalLoop=1;jettySize=auto;html=1;exitX=0.5;exitY=0.5;exitDx=0;exitDy=0;exitPerimeter=0;" edge="1" parent="1" source="QB25MnDb5i1oO8HmWv7v-44" target="QB25MnDb5i1oO8HmWv7v-38">
          <mxGeometry relative="1" as="geometry" />
        </mxCell>
        <mxCell id="QB25MnDb5i1oO8HmWv7v-44" value="Trainer" style="shape=umlActor;verticalLabelPosition=bottom;verticalAlign=top;html=1;" vertex="1" parent="1">
          <mxGeometry x="50" y="790" width="30" height="60" as="geometry" />
        </mxCell>
      </root>
    </mxGraphModel>
  </diagram>
</mxfile>
